# xmcd CD database file
#
# Track frame offsets:
#	150
#	30960
#	53220
#	70842
#	95977
#	110782
#	138705
#	158445
#	182085
#	202815
#
# Disc length: 2924 seconds
#
# Revision: 0
# Processed by: cddbd v1.5.1PL2 Copyright (c) Steve Scherf et al.
# Submitted via: CDex 1.51
#
DISCID=880b6a0a
DTITLE=이정식 - Collaboration
DYEAR=1996
DGENRE=Jazz
TTITLE0=Asante(Thank You)
TTITLE1=SSS
TTITLE2=오래된 친구(Old Friend)
TTITLE3=Space Mafia
TTITLE4=색칠을 할까?(Colored It?)
TTITLE5=Bossa Walz
TTITLE6=거리의 크리스마스(Christmas Road)
TTITLE7=For Wedding
TTITLE8=색칠을 할까?(Colored It? Vocal)
TTITLE9=순간마다(Moment By Moment)
EXTD=YEAR: 1996
EXTT0=
EXTT1=
EXTT2=
EXTT3=
EXTT4=
EXTT5=
EXTT6=
EXTT7=
EXTT8=
EXTT9=
PLAYORDER=
